<?xml version="1.0" encoding="UTF-8"?>
<svg width="18px" height="18px" viewBox="0 0 18 18" version="1.1" xmlns="http://www.w3.org/2000/svg" xmlns:xlink="http://www.w3.org/1999/xlink">
    <title>3DBC1F2C-FA59-4DD9-B365-0666409DC90D</title>
    <g id="Page-1" stroke="none" stroke-width="1" fill="none" fill-rule="evenodd">
        <g id="Courses_search-results_onhover" transform="translate(-320.000000, -380.000000)" fill="#FFFFFF">
            <g id="Group-32" transform="translate(111.000000, 353.000000)">
                <path d="M224,36.04 C224,36.43 223.68,36.75 223.29,36.75 L219.25,36.75 C218.974,36.75 218.75,36.974 218.75,37.25 L218.75,41.29 C218.75,41.68 218.43,42 218.04,42 L217.96,42 C217.57,42 217.25,41.68 217.25,41.29 L217.25,37.25 C217.25,36.974 217.026,36.75 216.75,36.75 L212.71,36.75 C212.32,36.75 212,36.43 212,36.04 L212,35.96 C212,35.57 212.32,35.25 212.71,35.25 L216.75,35.25 C217.026,35.25 217.25,35.026 217.25,34.75 L217.25,30.71 C217.25,30.32 217.57,30 217.96,30 L218.04,30 C218.43,30 218.75,30.32 218.75,30.71 L218.75,34.75 C218.75,35.026 218.974,35.25 219.25,35.25 L223.29,35.25 C223.68,35.25 224,35.57 224,35.96 L224,36.04 Z M224.36,29.64 C220.85,26.12 215.15,26.12 211.64,29.64 C208.12,33.15 208.12,38.85 211.64,42.36 C215.15,45.88 220.85,45.88 224.36,42.36 C227.88,38.85 227.88,33.15 224.36,29.64 L224.36,29.64 Z" id="add"></path>
            </g>
        </g>
    </g>
</svg>