<?xml version="1.0" encoding="UTF-8"?>
<svg width="40px" height="47px" viewBox="0 0 40 47" version="1.1" xmlns="http://www.w3.org/2000/svg" xmlns:xlink="http://www.w3.org/1999/xlink">
    <title>1EB4366A-4B15-4601-852A-5B6F9B0A2F94</title>
    <g id="Website" stroke="none" stroke-width="1" fill="none" fill-rule="evenodd">
        <g id="about-documents" transform="translate(-514.000000, -289.000000)">
            <g id="card/resource" transform="translate(489.321001, 271.996000)">
                <g id="Group-2" transform="translate(25.591837, 17.000000)">
                    <path d="M23.1708982,0 L4.63417965,0 C2.08538084,0 0.0231708982,2.08538084 0.0231708982,4.63417965 L0,41.7076168 C0,44.2564156 2.06220994,46.3417965 4.61100875,46.3417965 L32.4392575,46.3417965 C34.9880563,46.3417965 37.0734372,44.2564156 37.0734372,41.7076168 L37.0734372,13.9025389 L23.1708982,0 L23.1708982,0 Z M20.8538084,16.2196288 L20.8538084,3.47563474 L33.5978024,16.2196288 L20.8538084,16.2196288 L20.8538084,16.2196288 Z" id="Shape" fill="#00A2AE"></path>
                    <path d="M9.94488806,35.3458837 C11.2270428,35.3458837 12.2269842,35.0270871 12.9447121,34.3894939 C13.66244,33.7519006 14.021304,32.8024789 14.021304,31.5412289 C14.021304,30.7468504 13.8627767,30.0779001 13.5457221,29.5343779 C13.2286676,28.9908558 12.7827007,28.5797301 12.2078215,28.3010008 C11.6329424,28.0222715 10.9552818,27.8829069 10.1748397,27.8829069 L10.1748397,27.8829069 L7.83351365,27.8829069 L7.83351365,35.3458837 L9.94488806,35.3458837 Z M10.0912209,34.0393402 L9.41181828,34.0393402 L9.41181828,29.1789981 L10.2584585,29.1789981 C10.9483135,29.1789981 11.4744151,29.3741086 11.8367632,29.7643296 C12.1991112,30.1545506 12.3802853,30.7607868 12.3802853,31.5830383 C12.3802853,33.2205729 11.6172638,34.0393402 10.0912209,34.0393402 L10.0912209,34.0393402 Z M18.787575,35.4504072 C19.5958899,35.4504072 20.2630982,35.2901379 20.7891997,34.9695992 C21.3153013,34.6490605 21.7055223,34.2013516 21.9598627,33.6264724 C22.2142032,33.0515932 22.3413735,32.3774168 22.3413735,31.603943 C22.3413735,30.8304692 22.2142032,30.1562927 21.9598627,29.5814135 C21.7055223,29.0065343 21.3170433,28.5605675 20.7944259,28.2435129 C20.2718085,27.9264583 19.6063423,27.767931 18.7980273,27.767931 C17.9827441,27.767931 17.3120517,27.9264583 16.7859502,28.2435129 C16.2598487,28.5605675 15.8696276,29.0047923 15.6152872,29.5761873 C15.3609467,30.1475824 15.2337764,30.8200168 15.2337764,31.5934906 C15.2337764,32.3669644 15.3609467,33.0428829 15.6152872,33.6212462 C15.8696276,34.1996095 16.2598487,34.6490605 16.7859502,34.9695992 C17.3120517,35.2901379 17.97926,35.4504072 18.787575,35.4504072 Z M18.787575,34.122959 C18.1255929,34.122959 17.6447848,33.8982335 17.3451508,33.4487825 C17.0455169,32.9993315 16.8956999,32.384385 16.8956999,31.603943 C16.8956999,30.8235009 17.0455169,30.2085544 17.3451508,29.7591034 C17.6447848,29.3096524 18.129077,29.084927 18.7980273,29.084927 C19.4669776,29.084927 19.9477856,29.3096524 20.2404514,29.7591034 C20.5331172,30.2085544 20.67945,30.8235009 20.67945,31.603943 C20.67945,32.384385 20.5331172,32.9993315 20.2404514,33.4487825 C19.9477856,33.8982335 19.4634935,34.122959 18.787575,34.122959 Z M26.9090498,35.4504072 C27.306239,35.4504072 27.665103,35.4190502 27.9856417,35.3563361 C28.3061804,35.293622 28.6302032,35.1960668 28.9577101,35.0636703 L28.9577101,35.0636703 L28.9577101,33.7362221 C28.6023303,33.8616503 28.2713392,33.9592055 27.964737,34.0288878 C27.6581348,34.0985702 27.3550167,34.1334113 27.0553827,34.1334113 C26.4003688,34.1334113 25.924787,33.9156541 25.6286371,33.4801395 C25.3324872,33.044625 25.1844123,32.4296785 25.1844123,31.6353 C25.1844123,30.8478897 25.3446816,30.2277171 25.6652203,29.774782 C25.985759,29.3218469 26.4491465,29.0953793 27.0553827,29.0953793 C27.3271437,29.0953793 27.604131,29.1441569 27.8863444,29.2417122 C28.1685578,29.3392674 28.4490292,29.4542433 28.7277584,29.5866397 L28.7277584,29.5866397 L29.2399235,28.3010008 C28.8984801,28.1407315 28.5413582,28.0135612 28.1685578,27.9194901 C27.7957574,27.8254189 27.424699,27.7783834 27.0553827,27.7783834 C26.3028136,27.7783834 25.6669624,27.9421368 25.1478291,28.2696438 C24.6286957,28.5971507 24.2332486,29.0500858 23.9614875,29.6284491 C23.6897264,30.2068124 23.5538459,30.8722786 23.5538459,31.6248477 C23.5538459,32.3913532 23.6723059,33.0620456 23.9092258,33.6369248 C24.1461457,34.2118039 24.5119779,34.6577708 25.0067224,34.9748254 C25.5014669,35.2918799 26.135576,35.4504072 26.9090498,35.4504072 Z" id="DOC" fill="#FFFFFF" fill-rule="nonzero"></path>
                </g>
            </g>
        </g>
    </g>
</svg>