<?xml version="1.0" encoding="UTF-8"?>
<svg width="17px" height="14px" viewBox="0 0 17 14" version="1.1" xmlns="http://www.w3.org/2000/svg" xmlns:xlink="http://www.w3.org/1999/xlink">
    <title>34A4925B-CD2F-4AE4-8960-EEC09786A99A</title>
    <g id="Website" stroke="none" stroke-width="1" fill="none" fill-rule="evenodd">
        <g id="about-event-" transform="translate(-554.000000, -554.000000)" fill="#ACACAC">
            <g id="Group-4" transform="translate(489.000000, 266.500000)">
                <g id="Oval" transform="translate(0.778999, 0.000000)">
                    <g id="Group-4" transform="translate(64.659630, 228.614555)">
                        <path d="M14.4,59.1590296 L1.6,59.1590296 C0.72,59.1590296 0.008,59.8809704 0.008,60.7633423 L0,70.3892183 C0,71.2715903 0.72,71.993531 1.6,71.993531 L14.4,71.993531 C15.28,71.993531 16,71.2715903 16,70.3892183 L16,60.7633423 C16,59.8809704 15.28,59.1590296 14.4,59.1590296 L14.4,59.1590296 Z M14.4,70.3892183 L1.6,70.3892183 L1.6,62.367655 L8,66.3784367 L14.4,62.367655 L14.4,70.3892183 L14.4,70.3892183 Z M8,64.774124 L1.6,60.7633423 L14.4,60.7633423 L8,64.774124 L8,64.774124 Z" id="Shape"></path>
                    </g>
                </g>
            </g>
        </g>
    </g>
</svg>