<?xml version="1.0" encoding="UTF-8"?>
<svg width="32px" height="24px" viewBox="0 0 32 24" version="1.1" xmlns="http://www.w3.org/2000/svg" xmlns:xlink="http://www.w3.org/1999/xlink">
    <!-- Generator: sketchtool 59.1 (101010) - https://sketch.com -->
    <title>1399FFE2-3DCF-40BC-B08A-A426B21BD300</title>
    <desc>Created with sketchtool.</desc>
    <g id="Offline-Desktop" stroke="none" stroke-width="1" fill="none" fill-rule="evenodd">
        <g id="DIKSHA-Desktop---Library-Guest-menu" transform="translate(-980.000000, -505.000000)" fill="#333333" fill-rule="nonzero">
            <g id="noun_Hard-Disk-Drive_2064229" transform="translate(980.000000, 505.000000)">
                <g id="Group">
                    <polygon id="Path" points="8.58928571 17.3333333 7.92857143 17.332 7.92857143 17.3333333"></polygon>
                    <polygon id="Path" points="4.625 17.3333333 3.96428571 17.332 3.96428571 17.3333333"></polygon>
                    <path d="M29.0714286,13.3333333 L2.64285714,13.3333333 C1.18532143,13.3333333 0,14.5293333 0,16 L0,21.3333333 C0,22.804 1.18532143,24 2.64285714,24 L29.0714286,24 C30.5289643,24 31.7142857,22.804 31.7142857,21.3333333 L31.7142857,16 C31.7142857,14.5293333 30.5289643,13.3333333 29.0714286,13.3333333 Z M7.92857143,16 C8.65667857,16 9.25,16.5973333 9.25,17.3333333 C9.25,18.0693333 8.65667857,18.6666667 7.92857143,18.6666667 C7.20046429,18.6666667 6.60714286,18.0693333 6.60714286,17.3333333 C6.60714286,16.5973333 7.20046429,16 7.92857143,16 Z M3.96428571,16 C4.69239286,16 5.28571429,16.5973333 5.28571429,17.3333333 C5.28571429,18.0693333 4.69239286,18.6666667 3.96428571,18.6666667 C3.23617857,18.6666667 2.64285714,18.0693333 2.64285714,17.3333333 C2.64285714,16.5973333 3.23617857,16 3.96428571,16 Z M28.4107143,21.3333333 L3.30357143,21.3333333 C2.93885714,21.3333333 2.64285714,21.0346667 2.64285714,20.6666667 C2.64285714,20.2986667 2.93885714,20 3.30357143,20 L28.4107143,20 C28.7754286,20 29.0714286,20.2986667 29.0714286,20.6666667 C29.0714286,21.0346667 28.7754286,21.3333333 28.4107143,21.3333333 Z" id="Shape"></path>
                    <path d="M29.0714286,12 C29.4374643,12 29.7836786,12.0666667 30.1206429,12.16 L24.8507857,1.52133333 C24.8388929,1.49733333 24.8256786,1.47466667 24.8111429,1.45333333 C24.3605357,0.566666667 23.44875,0 22.4642857,0 L9.25,0 C8.2695,0 7.36035714,0.564 6.90842857,1.444 C6.89125,1.468 6.87671429,1.49466667 6.8635,1.52133333 L1.59364286,12.1613333 C1.93060714,12.0666667 2.27682143,12 2.64285714,12 L29.0714286,12 Z" id="Path"></path>
                </g>
            </g>
        </g>
    </g>
</svg>