<?xml version="1.0" encoding="UTF-8"?>
<svg width="24px" height="19px" viewBox="0 0 24 19" version="1.1" xmlns="http://www.w3.org/2000/svg" xmlns:xlink="http://www.w3.org/1999/xlink">
    <!-- Generator: sketchtool 60.1 (101010) - https://sketch.com -->
    <title>50ACA23E-729E-4D5A-9382-545BA782A0B1</title>
    <desc>Created with sketchtool.</desc>
    <g id="Offline-Desktop" stroke="none" stroke-width="1" fill="none" fill-rule="evenodd">
        <g id="Offline-Desktop---Browse-Online-Card-hover" transform="translate(-547.000000, -372.000000)">
            <g id="Card-Hover" transform="translate(340.000000, 321.000000)">
                <g id="Group-27" transform="translate(200.000000, 49.000000)">
                    <g id="Group-21" transform="translate(7.000000, 0.000000)">
                        <g id="noun_Book_795204" transform="translate(0.000000, 2.000000)" fill="#FFFFFF" fill-rule="nonzero">
                            <g id="Group" transform="translate(0.000000, 0.165488)">
                                <path d="M6.44271697,0.0939684324 C4.44539286,0.0939684324 2.41590357,0.817102703 0.380633488,2.18486919 C0.170063974,2.32447135 0.0353811632,2.57224476 0.0326101362,2.82510616 L0.0326101362,17.7531503 C-0.124035918,18.2309708 0.307953704,18.7986941 0.809592623,18.7743049 C0.814989379,18.7743568 0.820386136,18.7743568 0.825782893,18.7743049 L22.5651064,18.7743049 C23.018901,18.7805319 23.4177162,18.3146984 23.3420837,17.8666119 C23.3421875,11.0451373 23.3475324,9.73273946 23.3420837,2.82510616 C23.3394891,2.58190184 23.2156232,2.34295005 23.0183562,2.20107762 C21.0914286,0.812582919 19.0852839,0.12992173 17.077501,0.146708757 C15.2630413,0.161887135 13.4472402,0.74828627 11.6873526,1.90122032 C10.0343416,0.733017081 8.27018595,0.0939684324 6.44271697,0.0939684324 Z M17.1262275,1.60946595 C18.6602685,1.60946595 20.193551,2.17247481 21.7881291,3.25463092 C21.7925399,9.13183135 21.7881291,11.3076324 21.7881291,16.6428714 C20.148008,15.751213 18.6461955,15.2489254 17.1262275,15.2489514 C15.6036493,15.2489514 14.1057535,15.7501492 12.4643325,16.6509665 L12.4643325,3.22221405 C14.0617206,2.14750703 15.5976195,1.60946595 17.1262275,1.60946595 L17.1262275,1.60946595 Z M6.44271697,1.64998832 C7.97033643,1.64998832 9.43654443,2.16229103 10.9103676,3.23842249 L10.9103676,16.6590876 C9.17674508,15.7422876 7.49638703,15.2322941 5.86807395,15.2246141 C4.36219459,15.2176086 2.91854919,15.6371027 1.58657514,16.4564757 L1.58657514,3.27083935 C3.30588584,2.18263005 4.91981189,1.64998832 6.44271697,1.64998832 Z" id="Shape"></path>
                            </g>
                        </g>
                        <polygon id="Path" points="0 0 24 0 24 24 0 24"></polygon>
                    </g>
                </g>
            </g>
        </g>
    </g>
</svg>