<?xml version="1.0" encoding="UTF-8"?>
<svg width="39px" height="24px" viewBox="0 0 39 24" version="1.1" xmlns="http://www.w3.org/2000/svg" xmlns:xlink="http://www.w3.org/1999/xlink">
    <!-- Generator: sketchtool 60.1 (101010) - https://sketch.com -->
    <title>8D79CC7E-CBD1-4C96-9F23-C60B5D1F38B7</title>
    <desc>Created with sketchtool.</desc>
    <g id="Offline-Desktop" stroke="none" stroke-width="1" fill="none" fill-rule="evenodd">
        <g id="Offline-Desktop---Browse-Online-Card-hover" transform="translate(-397.000000, -574.000000)">
            <g id="Card-Hover" transform="translate(340.000000, 525.000000)">
                <g id="Group-41" transform="translate(57.000000, 49.000000)">
                    <path d="M4.33653303,6.50479955 C1.97485714,6.50479955 3.87245791e-13,8.40986887 3.87245791e-13,10.8413326 L3.87245791e-13,19.5143986 C3.87245791e-13,21.9458927 1.97486235,23.8509317 4.33653303,23.8509317 L29.0547713,23.8509317 C29.5088796,23.8509317 29.9220324,23.4377334 29.9220779,22.9836251 L29.9220779,21.2490119 L37.2941841,21.2490119 C37.7482924,21.2489663 38.1614907,20.8358135 38.1614907,20.3817053 L38.1614907,9.97402597 C38.1614907,9.51991768 37.7482924,9.1067649 37.2941841,9.10671937 L29.9220779,9.10671937 L29.9220779,7.37210615 C29.9220324,6.91799786 29.5088796,6.50479955 29.0547713,6.50479955 L4.33653303,6.50479955 Z M4.33653303,8.23941276 L28.1874647,8.23941276 L28.1874647,22.1163185 L4.33653303,22.1163185 C2.88027667,22.1163185 1.73461321,21.0320985 1.73461321,19.5143986 L1.73461321,10.8413326 C1.73461321,9.32363709 2.88028187,8.23941276 4.33653303,8.23941276 Z M29.9220779,10.8413326 L36.4268775,10.8413326 L36.4268775,19.5143986 L29.9220779,19.5143986 L29.9220779,10.8413326 Z M4.24167137,12.1287408 C3.81549772,12.1755732 3.46000522,12.5809588 3.46922643,13.0095991 L3.46922643,17.7797854 C3.46922643,18.6391562 3.79898724,19.3739383 4.33653303,19.8125353 C4.87407883,20.2511322 5.50804743,20.38178 6.07114625,20.38178 C6.5293543,20.388184 6.950802,19.9726522 6.950802,19.5143986 C6.950802,19.0561451 6.5293543,18.6406133 6.07114625,18.647092 C5.76693845,18.647092 5.53359221,18.5630283 5.42066629,18.4709204 C5.30774037,18.3787691 5.20383964,18.2666914 5.20383964,17.7797854 L5.20383964,13.0095991 C5.21443813,12.5175977 4.73082796,12.0748559 4.24167137,12.1287408 Z M32.4426877,12.5759458 C31.9885049,12.5971428 31.5945733,13.0297371 31.6158631,13.4839156 C31.6371525,13.9380942 32.0698235,14.3319394 32.5239977,14.310559 L33.8249577,14.310559 C34.2831657,14.3170378 34.7046134,13.901506 34.7046134,13.4432524 C34.7046134,12.9849988 34.2831657,12.569467 33.8249577,12.5759458 C33.3684465,12.5759237 32.8924487,12.5759458 32.4426877,12.5759458 Z M32.4426877,16.0451722 C31.9885049,16.0663692 31.5945733,16.4989635 31.6158631,16.9531421 C31.6371525,17.4073206 32.0698235,17.8011658 32.5239977,17.7797854 L33.8249577,17.7797854 C34.2831657,17.7862642 34.7046134,17.3707324 34.7046134,16.9124788 C34.7046134,16.4542252 34.2831657,16.0386934 33.8249577,16.0451722 C33.3684465,16.0451501 32.8924487,16.0451722 32.4426877,16.0451722 Z" id="Shape" fill="#FFFFFF" fill-rule="nonzero"></path>
                    <path d="M14.6086957,14.6086957 C18.6427756,14.6086957 21.9130435,11.3384277 21.9130435,7.30434783 C21.9130435,3.27026791 18.6427756,0 14.6086957,0 C10.5746157,0 7.30434783,3.27026791 7.30434783,7.30434783 C7.30434783,11.3384277 10.5746157,14.6086957 14.6086957,14.6086957 Z" id="Path" fill="#FFFFFF" fill-rule="nonzero"></path>
                    <path d="M14.6086957,13.1068671 C11.4040527,13.1068671 8.80617635,10.5089907 8.80617635,7.30434783 C8.80617635,4.09970491 11.4040527,1.50182852 14.6086957,1.50182852 C17.8133386,1.50182852 20.411215,4.09970491 20.411215,7.30434783 C20.411215,10.5089907 17.8133386,13.1068671 14.6086957,13.1068671 Z" id="Path" fill="#024F9D" fill-rule="nonzero"></path>
                    <polygon id="Path" fill="#FFFFFF" points="15.7434783 5.2173913 13.473913 5.2173913 13.473913 7.45341615 11.4782609 7.45341615 14.6086957 10.4347826 17.7391304 7.45341615 15.7434783 7.45341615"></polygon>
                </g>
            </g>
        </g>
    </g>
</svg>