<?xml version="1.0" encoding="UTF-8"?>
<svg width="13px" height="17px" viewBox="0 0 13 17" version="1.1" xmlns="http://www.w3.org/2000/svg" xmlns:xlink="http://www.w3.org/1999/xlink">
    <title>1FFD6BC7-27C2-410A-A4C5-FE920FD2C883</title>
    <g id="Website" stroke="none" stroke-width="1" fill="none" fill-rule="evenodd">
        <g id="about-event-" transform="translate(-556.000000, -495.000000)" fill="#ACACAC">
            <g id="Group-4" transform="translate(489.000000, 266.500000)">
                <g id="Oval" transform="translate(0.778999, 0.000000)">
                    <g id="Group-4" transform="translate(64.659630, 228.614555)">
                        <path d="M8,0 C4.904,0 2.4,2.51074933 2.4,5.61509434 C2.4,9.82641509 8,16.0431267 8,16.0431267 C8,16.0431267 13.6,9.82641509 13.6,5.61509434 C13.6,2.51074933 11.096,0 8,0 L8,0 Z M8,7.62048518 C6.896,7.62048518 6,6.72207008 6,5.61509434 C6,4.5081186 6.896,3.6097035 8,3.6097035 C9.104,3.6097035 10,4.5081186 10,5.61509434 C10,6.72207008 9.104,7.62048518 8,7.62048518 L8,7.62048518 Z" id="Shape"></path>
                    </g>
                </g>
            </g>
        </g>
    </g>
</svg>