<svg xmlns="http://www.w3.org/2000/svg" width="124" height="119.559" viewBox="0 0 124 119.559"><defs><style>.a{fill:#ecf0f1;}.b{fill:#fb7b76;}.c{fill:#fff;}.d{fill:#3b97d3;}.e{fill:#2980ba;}.f{fill:#ff5364;}.g{fill:#f0c419;}.h{fill:#65ddb9;}.i{fill:#285680;}.j{fill:#35495e;}</style></defs><g transform="translate(0 0)"><rect class="a" width="124" height="98" rx="4" transform="translate(0 0)"/><path class="b" d="M103,64.266c-3.181,3.1-7.43,7.024-12.276,10.952-10.547,8.561-23.89,17.1-35.142,17.1s-24.595-8.54-35.142-17.1C15.59,71.29,11.341,67.361,8.16,64.266a8.521,8.521,0,0,1,0-12.212c3.181-3.1,7.43-7.024,12.276-10.952C30.983,32.54,44.327,24,55.578,24S80.173,32.54,90.72,41.1c4.846,3.928,9.095,7.857,12.276,10.952a8.521,8.521,0,0,1,0,12.212Z" transform="translate(6.336 27.239)"/><path class="c" d="M95.363,65.781c-2.028,2.733-4.548,6.021-7.387,9.437-10.547,8.561-23.89,17.1-35.142,17.1s-24.595-8.54-35.142-17.1c-2.84-3.416-5.359-6.7-7.387-9.437a13.749,13.749,0,0,1,0-15.244c2.028-2.733,4.547-6.021,7.387-9.437C28.24,32.54,41.583,24,52.835,24s24.595,8.54,35.142,17.1c2.84,3.416,5.359,6.7,7.387,9.437A13.749,13.749,0,0,1,95.363,65.781Z" transform="translate(9.08 27.239)"/><path class="d" d="M81.319,58.16a34.253,34.253,0,0,1-13.429,27.2l-.043.043c-.021,0-.021,0-.043.021s-.043.021-.064.043C60.8,89.48,53.629,92.319,47.16,92.319s-13.642-2.84-20.581-6.853c-.021-.021-.043-.043-.064-.043s-.021-.021-.043-.021l-.043-.043a34.26,34.26,0,0,1,0-54.4l.043-.043c.021,0,.021,0,.043-.021s.043-.021.064-.043C33.517,26.84,40.691,24,47.16,24S60.8,26.84,67.741,30.853c.021.021.043.043.064.043s.021.021.043.021l.043.043A34.254,34.254,0,0,1,81.319,58.16Z" transform="translate(14.755 27.239)"/><path class="d" d="M123.829,8.54v8.54H0V8.54A8.54,8.54,0,0,1,8.54,0H115.289A8.54,8.54,0,0,1,123.829,8.54Z" transform="translate(0 0)"/><path class="e" d="M39.945,7.27H27.135a2.135,2.135,0,1,1,0-4.27h12.81a2.135,2.135,0,1,1,0,4.27Z" transform="translate(28.374 3.405)"/><path class="e" d="M67.62,7.27H44.135a2.135,2.135,0,1,1,0-4.27H67.62a2.135,2.135,0,0,1,0,4.27Z" transform="translate(47.669 3.405)"/><circle class="f" cx="2.5" cy="2.5" r="2.5" transform="translate(6 6)"/><ellipse class="g" cx="2" cy="2.5" rx="2" ry="2.5" transform="translate(15 6)"/><ellipse class="h" cx="2" cy="2.5" rx="2" ry="2.5" transform="translate(24 6)"/><path class="e" d="M27.686,34.864A19.018,19.018,0,0,1,39.215,31,19.215,19.215,0,1,1,20,50.215a18.946,18.946,0,0,1,2.263-9.031Z" transform="translate(22.699 35.184)"/><ellipse class="i" cx="11" cy="10.5" rx="11" ry="10.5" transform="translate(51 75)"/><g transform="translate(19.215 25.62)"><path class="j" d="M19.675,16.27h-8.54a2.135,2.135,0,0,1,0-4.27h8.54a2.135,2.135,0,1,1,0,4.27Z" transform="translate(-9 -12)"/><path class="j" d="M53.675,16.27h-8.54a2.135,2.135,0,1,1,0-4.27h8.54a2.135,2.135,0,1,1,0,4.27Z" transform="translate(29.589 -12)"/><path class="j" d="M66.1,16.27H19.135a2.135,2.135,0,1,1,0-4.27H66.1a2.135,2.135,0,0,1,0,4.27Z" transform="translate(0.08 -12)"/><path class="j" d="M56.295,20.27H22.135a2.135,2.135,0,1,1,0-4.27h34.16a2.135,2.135,0,1,1,0,4.27Z" transform="translate(3.485 -7.46)"/></g><ellipse class="a" cx="8" cy="8.5" rx="8" ry="8.5" transform="translate(39 64)"/></g></svg>