<svg xmlns="http://www.w3.org/2000/svg" width="20" height="21" viewBox="0 0 20 21"><defs><style>.a{fill:#e4e4e4;}.b{fill:#ff6979;stroke:#ff6979;}</style></defs><g transform="translate(0 -7.375)"><path class="a" d="M137.082,420.5a3.755,3.755,0,0,1-3.75-3.75.75.75,0,0,1,1.5,0,2.25,2.25,0,0,0,4.5,0,.75.75,0,0,1,1.5,0A3.755,3.755,0,0,1,137.082,420.5Zm0,0" transform="translate(-127.082 -392.125)"/><path class="a" d="M18.25,82H1.75A1.75,1.75,0,0,1,.612,78.92a.691.691,0,0,1,.08-.06A6.721,6.721,0,0,0,3,73.79V71a7.008,7.008,0,0,1,7-7,3.012,3.012,0,0,1,.493.03.75.75,0,1,1-.246,1.479A1.574,1.574,0,0,0,10,65.5,5.507,5.507,0,0,0,4.5,71v2.79a8.225,8.225,0,0,1-2.9,6.271c-.015.012-.028.023-.044.034a.247.247,0,0,0-.053.155.253.253,0,0,0,.25.25h16.5a.253.253,0,0,0,.25-.25.239.239,0,0,0-.054-.155l-.043-.034a8.223,8.223,0,0,1-2.9-6.271V72.7a.75.75,0,0,1,1.5,0v1.09a6.723,6.723,0,0,0,2.311,5.073.729.729,0,0,1,.077.058A1.75,1.75,0,0,1,18.25,82Zm0,0" transform="translate(0 -56.625)"/><path class="b" d="M258.695,5.39a2.695,2.695,0,1,1,2.695-2.695A2.7,2.7,0,0,1,258.695,5.39Zm0-4.581a1.886,1.886,0,1,0,1.886,1.886A1.889,1.889,0,0,0,258.695.808Zm0,0" transform="translate(-244.407 8.578)"/></g></svg>