<?xml version="1.0" encoding="UTF-8"?>
<svg width="12px" height="12px" viewBox="0 0 12 12" version="1.1" xmlns="http://www.w3.org/2000/svg" xmlns:xlink="http://www.w3.org/1999/xlink">
    <!-- Generator: sketchtool 58 (101010) - https://sketch.com -->
    <title>3E189F34-AFA2-4221-BBB5-DDD8D0A515DD</title>
    <desc>Created with sketchtool.</desc>
    <g id="Web-Library-FLow" stroke="none" stroke-width="1" fill="none" fill-rule="evenodd">
        <g id="Search-result--open-filter" transform="translate(-1248.000000, -162.000000)">
            <g id="Group-5" transform="translate(112.000000, 152.000000)">
                <g id="Group-7" transform="translate(1118.000000, 0.000000)">
                    <g id="outline-tune-24px" transform="translate(16.000000, 8.000000)">
                        <polygon id="Path" points="0 0 16 0 16 16 0 16"></polygon>
                        <path d="M2,11.3333333 L2,12.6666667 L6,12.6666667 L6,11.3333333 L2,11.3333333 Z M2,3.33333333 L2,4.66666667 L8.66666667,4.66666667 L8.66666667,3.33333333 L2,3.33333333 Z M8.66666667,14 L8.66666667,12.6666667 L14,12.6666667 L14,11.3333333 L8.66666667,11.3333333 L8.66666667,10 L7.33333333,10 L7.33333333,14 L8.66666667,14 Z M4.66666667,6 L4.66666667,7.33333333 L2,7.33333333 L2,8.66666667 L4.66666667,8.66666667 L4.66666667,10 L6,10 L6,6 L4.66666667,6 Z M14,8.66666667 L14,7.33333333 L7.33333333,7.33333333 L7.33333333,8.66666667 L14,8.66666667 Z M10,6 L11.3333333,6 L11.3333333,4.66666667 L14,4.66666667 L14,3.33333333 L11.3333333,3.33333333 L11.3333333,2 L10,2 L10,6 Z" id="Shape" fill="#024F9D" fill-rule="nonzero"></path>
                    </g>
                </g>
            </g>
        </g>
    </g>
</svg>