<?xml version="1.0" encoding="UTF-8"?>
<svg width="15px" height="15px" viewBox="0 0 15 15" version="1.1" xmlns="http://www.w3.org/2000/svg" xmlns:xlink="http://www.w3.org/1999/xlink">
    <title>81B863F1-FEA5-4583-802B-C54B6407309E</title>
    <g id="Website" stroke="none" stroke-width="1" fill="none" fill-rule="evenodd">
        <g id="about-event-" transform="translate(-555.000000, -523.000000)" fill="#ACACAC">
            <g id="Group-4" transform="translate(489.000000, 266.500000)">
                <g id="Oval" transform="translate(0.778999, 0.000000)">
                    <g id="Group-4" transform="translate(64.659630, 228.614555)">
                        <path d="M3.81555556,34.6520395 C4.93555556,36.8590836 6.74,38.660593 8.94111111,39.7914106 L10.6522222,38.0756873 C10.8622222,37.8651213 11.1733333,37.7949326 11.4455556,37.8885175 C12.3166667,38.177071 13.2577778,38.3330458 14.2222222,38.3330458 C14.65,38.3330458 15,38.6839892 15,39.11292 L15,41.834681 C15,42.2636119 14.65,42.6145553 14.2222222,42.6145553 C6.91888889,42.6145553 1,36.6797125 1,29.3566936 C1,28.9277628 1.35,28.5768194 1.77777778,28.5768194 L4.5,28.5768194 C4.92777778,28.5768194 5.27777778,28.9277628 5.27777778,29.3566936 C5.27777778,30.3315364 5.43333333,31.2673854 5.72111111,32.1408446 C5.80666667,32.4138005 5.74444444,32.7179515 5.52666667,32.9363163 L3.81555556,34.6520395 L3.81555556,34.6520395 Z" id="Shape"></path>
                    </g>
                </g>
            </g>
        </g>
    </g>
</svg>