<svg xmlns="http://www.w3.org/2000/svg" width="24" height="24" viewBox="0 0 24 24"><defs><style>.a{fill:#e4e4e4;}</style></defs><g transform="translate(0 0)"><path class="a" d="M166.9,208.867h-9.038a2.589,2.589,0,0,0-2.586,2.586v4.91l-2.342,1.672a.7.7,0,0,0,0,1.144l2.37,1.693a2.59,2.59,0,0,0,2.558,2.2H166.9a2.589,2.589,0,0,0,2.586-2.586v-9.038a2.589,2.589,0,0,0-2.586-2.586Zm-3.039,9.88c-.166,0-.294-.053-.331-.2l-.286-1h-1.725l-.286,1c-.038.143-.166.2-.331.2-.264,0-.618-.166-.618-.406a.435.435,0,0,1,.015-.075l1.454-4.737a.612.612,0,0,1,.625-.332c.286,0,.565.106.633.332l1.454,4.737a.334.334,0,0,1,.015.075c0,.233-.354.406-.618.406Zm0,0" transform="translate(-145.482 -199.076)"/><path class="a" d="M346.375,330.691h1.311l-.656-2.312Zm0,0" transform="translate(-330.139 -312.986)"/><path class="a" d="M8.384,12.376a3.972,3.972,0,0,1,.88-2.5A3.773,3.773,0,0,1,7.1,9.2a3.772,3.772,0,0,1-2.16.677.4.4,0,0,1,0-.793,2.985,2.985,0,0,0,1.538-.425,3.782,3.782,0,0,1-.992-2.18H4.944a.4.4,0,1,1,0-.793H6.708V4.726a.4.4,0,1,1,.793,0v.963H9.265a.4.4,0,1,1,0,.793H8.718a3.782,3.782,0,0,1-.992,2.18,2.981,2.981,0,0,0,1.538.425.4.4,0,0,1,.4.368,3.977,3.977,0,0,1,2.717-1.071h1.833V6.713l2.342-1.672a.7.7,0,0,0,0-1.144L14.181,2.2A2.59,2.59,0,0,0,11.623,0H2.586A2.589,2.589,0,0,0,0,2.586v9.038a2.589,2.589,0,0,0,2.586,2.586h5.8Zm0,0" transform="translate(0 0)"/><path class="a" d="M135,139.962a2.994,2.994,0,0,0,.815-1.685h-1.629A3,3,0,0,0,135,139.962Zm0,0" transform="translate(-127.894 -131.796)"/></g></svg>