<?xml version="1.0" encoding="UTF-8"?>
<svg width="24px" height="17px" viewBox="0 0 24 17" version="1.1" xmlns="http://www.w3.org/2000/svg" xmlns:xlink="http://www.w3.org/1999/xlink">
    <title>A47E1285-45CA-48A7-A6DC-14D41614EEB5</title>
    <g id="Page-1" stroke="none" stroke-width="1" fill="none" fill-rule="evenodd">
        <g id="Courses_search-results_onhover" transform="translate(-172.000000, -381.000000)" fill="#FFFFFF">
            <g id="Group-32" transform="translate(111.000000, 353.000000)">
                <g id="view" transform="translate(61.000500, 28.000000)">
                    <path d="M11.938,3 C14.833,3 17.188,5.355 17.188,8.25 C17.188,11.145 14.833,13.5 11.938,13.5 C9.043,13.5 6.688,11.145 6.688,8.25 C6.688,5.355 9.043,3 11.938,3 L11.938,3 Z M23.763,7.969 C21.804,3.128 17.163,0 11.938,0 C6.713,0 2.072,3.128 0.113,7.969 L1.0125234e-13,8.25 L0.113,8.531 C2.072,13.372 6.713,16.5 11.938,16.5 C17.163,16.5 21.804,13.372 23.763,8.531 L23.876,8.25 L23.763,7.969 Z" id="Fill-1"></path>
                    <path d="M11.938,12 C14.005,12 15.688,10.318 15.688,8.25 L15.688,7.5 L13.341,7.5 L14.655,5.534 L14.015,5.12 C13.388,4.714 12.669,4.5 11.938,4.5 C9.871,4.5 8.188,6.182 8.188,8.25 C8.188,10.318 9.871,12 11.938,12" id="Fill-3"></path>
                </g>
            </g>
        </g>
    </g>
</svg>