<svg xmlns="http://www.w3.org/2000/svg" width="16.153" height="11.801" viewBox="0 0 16.153 11.801"><defs><style>.a{fill:#07bc81;}</style></defs><g transform="translate(0.001 -82.446)"><g transform="translate(-0.001 82.446)"><g transform="translate(0 0)"><path class="a" d="M8.076,91.3a1.475,1.475,0,1,0,1.475,1.475A1.476,1.476,0,0,0,8.076,91.3Zm7.9-5.157a10.3,10.3,0,0,0-15.807,0,.738.738,0,0,0,1.129.949,8.829,8.829,0,0,1,13.548,0,.737.737,0,0,0,1.129-.949Zm-7.9-.743a7.363,7.363,0,0,0-5.645,2.637.738.738,0,0,0,1.129.949,5.885,5.885,0,0,1,9.032,0,.738.738,0,0,0,1.129-.949A7.364,7.364,0,0,0,8.076,85.4Zm0,2.95a4.416,4.416,0,0,0-3.387,1.582.738.738,0,0,0,1.129.949,2.941,2.941,0,0,1,4.516,0,.738.738,0,0,0,1.129-.949A4.416,4.416,0,0,0,8.076,88.346Z" transform="translate(0.001 -82.446)"/></g></g></g></svg>