<?xml version="1.0" encoding="UTF-8"?>
<svg width="257px" height="432px" viewBox="0 0 257 432" version="1.1" xmlns="http://www.w3.org/2000/svg" xmlns:xlink="http://www.w3.org/1999/xlink">
    <!-- Generator: Sketch 59.1 (86144) - https://sketch.com -->
    <title>Chhattisgarh</title>
    <desc>Created with Sketch.</desc>
    <g id="Certificate-Chhattisgarh" stroke="none" stroke-width="1" fill="none" fill-rule="evenodd">
        <g id="Certificate-Chhattisgarh-Sample" transform="translate(-292.000000, -82.000000)" fill="#F9F4EB">
            <path d="M293.467464,448.768 C293.872742,449.137649 294.273567,449.507299 294.678845,449.876948 C293.912825,450.179794 293.137897,450.830021 292.398598,451.19967 C296.731959,454.041072 296.291052,456.579629 301.911505,456.81567 C305.211629,456.953732 301.44833,454.045526 307.438433,455.47068 C308.614186,455.751258 313.125691,460.565608 313.900619,461.460784 C317.672825,465.798598 320.064412,470.572866 322.046268,475.788041 C322.478268,476.928165 323.449155,478.509196 323.631753,479.627052 C324.170639,482.993979 322.562887,484.998103 322.803381,487.830598 C325.48,488.770309 327.617732,484.307794 331.131629,485.153979 C333.158021,485.639423 332.187134,487.086845 332.66367,489.687753 C339.540041,488.418474 335.865814,488.356124 337.264247,493.798433 C337.874392,496.167753 339.401979,498.283216 340.208082,501.008825 C341.049814,503.872495 339.753814,507.159258 340.555464,509.88932 C342.831258,517.625237 346.354062,509.172289 351.921072,506.370969 C354.784742,504.923546 355.528495,506.068124 358.182845,504.340124 C360.69468,502.696742 364.306557,498.737485 365.678268,495.976247 C367.740289,491.834392 366.190433,485.572619 368.194557,482.245773 C370.461443,478.482474 377.854433,476.977155 381.172371,475.333773 C386.895258,472.501278 387.688,465.713979 392.270763,461.13567 C394.64899,458.761897 399.03134,462.645443 396.532866,456.539546 C395.811381,454.775918 392.284124,453.306227 390.582845,452.517938 C400.714804,448.710103 410.900206,448.870433 409.479505,434.912825 C419.558021,438.261938 411.479175,416.252206 411.154062,410.747546 C410.85567,405.621443 410.428124,393.52099 401.654515,396.340124 C400.955299,388.118763 407.524371,381.433897 402.48734,375.37699 C403.217732,376.254351 396.474969,371.021361 397.904577,371.76066 C396.875794,371.23068 393.638021,372.851794 392.814103,371.889814 C389.954887,368.52734 391.201897,359.833897 393.348536,356.275464 C396.955959,350.312082 403.346887,356.458062 409.99167,356.698557 C413.92866,356.841072 422.158928,356.734186 424.229856,360.724619 C424.853361,361.936 422.648825,370.166268 425.410062,370.344412 C425.619381,365.00899 435.635546,364.127175 439.211794,366.291629 C442.645526,368.371464 441.469773,368.558515 441.665732,373.965196 C445.375588,373.840495 446.399918,369.480412 446.23068,366.634557 C445.852124,360.283711 442.538639,363.151835 436.927093,362.381361 C421.259299,360.221361 427.868454,350.352165 428.932866,338.184907 C429.672165,329.74532 424.131876,328.948124 423.446021,321.354722 C423.018474,316.589361 419.86532,296.499134 425.343258,295.670763 C432.446763,294.601897 430.13534,307.441649 436.089814,295.301113 C437.840082,291.724866 438.450227,281.183175 440.50334,278.88066 C442.360495,276.809732 439.528,278.341773 445.478021,277.629196 C451.125196,276.952247 457.694268,278.038928 463.403794,278.136907 C466.285278,278.181443 474.528907,281.677526 476.586474,280.742268 C480.233979,279.085526 478.318928,271.505485 479.81534,268.695258 C482.269278,264.090227 487.034639,265.181361 491.644124,265.212536 C490.802392,259.50301 487.043546,259.093278 489.132289,251.905155 C490.365938,247.638598 492.855505,247.153155 494.650309,244.240495 C495.505402,242.859876 495.189196,240.668701 495.808247,238.940701 C497.491711,234.228784 499.629443,231.774845 504.158763,229.111588 C502.408495,226.443876 498.92132,224.025567 499.433485,220.369155 C499.887753,217.069031 502.297155,217.492124 503.610969,215.323216 C505.102928,212.855918 504.078598,211.782598 506.372206,208.905567 C508.714804,205.961732 512.870021,204.309443 515.889567,202.20734 C519.942351,199.383753 529.201402,196.80066 530.880412,192.315876 C532.18532,188.81534 530.283629,185.292536 527.00132,184.170227 C534.153814,185.372701 534.532371,177.605608 539.556041,173.592907 C543.337155,170.577814 544.811299,170.956371 546.610557,167.144082 C547.666062,164.917278 547.430021,160.592825 548.236124,157.947381 C541.194969,158.094351 535.565608,155.564701 532.203134,149.200495 C531.312412,147.508124 531.365856,144.328247 530.582021,141.611546 C529.468619,137.790351 527.152742,137.794804 526.604948,136.20932 C524.747794,130.811546 530.020866,121.20066 526.694021,117.036536 C523.768,113.37567 519.724124,117.945072 516.187959,114.707299 C514.58466,113.237608 513.814186,110.039918 513.008082,108.659299 C512.224247,107.300948 510.344825,104.441732 509.316041,102.878515 C506.554804,98.6832165 501.891876,97.8370309 498.956948,94.0470103 C494.690392,88.5245361 498.979216,82.8372784 489.737979,82 C489.929485,82.6324124 490.063093,83.3405361 490.138804,83.9996701 C486.93666,83.3806186 483.970557,85.456 482.643381,87.616 C479.009237,93.5036701 483.707794,98.1665979 473.678268,99.587299 C470.836866,99.9881237 465.185237,100.184082 462.419546,98.9905155 C459.996784,97.9439175 460.223918,95.8774433 457.899134,94.9065567 C452.488,92.6530309 454.069031,94.5458144 450.149856,96.358433 C448.444124,97.142268 446.172784,96.2292784 444.769897,97.6321649 C443.224495,99.1686598 444.39134,102.339629 442.222433,104.24132 C440.610227,105.653113 438.664,104.410557 437.176495,105.528412 C435.844866,106.526021 437.657485,109.100206 435.283711,110.111175 C432.290887,111.380454 432.954474,108.222845 431.939052,108.084784 C430.558433,107.897732 425.169567,106.218722 423.352495,106.138557 C421.615588,106.058392 416.667629,105.87134 413.648082,105.844619 C414.182515,100.620536 400.527753,102.161485 396.840165,102.410887 C393.03233,102.669196 389.197773,104.668866 385.309773,102.780536 C383.301196,101.814103 385.964454,96.8037938 380.388536,98.6520412 C374.300454,100.669526 383.465979,103.087835 384.214186,104.446186 C387.380701,110.186887 381.003134,111.15332 378.945567,115.237278 C377.391258,118.328082 376.852371,121.85534 381.323794,123.008825 C382.009649,123.186969 386.23167,120.612784 388.013113,120.844371 C390.587299,121.173938 391.972371,123.031093 393.829526,124.451794 C397.254351,120.252041 402.135505,126.887918 405.440082,130.281567 C411.710763,136.730392 419.059216,150.977485 406.183835,155.092619 C400.946392,156.767175 399.721649,154.424577 396.59967,159.76 C395.25468,162.053608 395.508536,165.113237 394.221443,167.429113 C393.308454,169.072495 390.939134,169.945402 390.195381,171.495258 C389.224495,173.517196 389.616412,177.035546 388.480742,178.972866 C387.042227,181.435711 384.641732,181.244206 382.72668,182.856412 C380.531052,184.709113 379.724948,186.797856 377.462515,188.650557 C372.421031,192.770144 369.802309,192.845856 364.854351,193.540619 C361.705649,193.985979 358.614845,194.422433 355.034144,195.068206 C345.726103,196.742763 350.772041,195.268619 348.678845,203.583505 C347.30268,209.061443 348.879258,205.765773 347.471918,207.98367 C344.683959,212.370474 343.579464,205.369402 341.388289,211.653443 C340.885031,213.100866 341.989526,213.613031 341.967258,214.098474 C341.628784,222.60932 343.650722,220.997113 334.249155,219.669938 C333.964124,230.251711 332.752742,223.923134 329.341278,229.908784 C326.197031,235.422351 337.950103,247.010639 323.734186,247.692041 C326.165856,259.307052 325.756124,269.434557 312.987629,271.830598 C322.928082,273.144412 317.454598,281.526103 311.954392,284.594639 C309.736495,285.832742 307.024247,286.612124 305.091381,287.649814 C304.476784,287.979381 305.140371,285.302763 303.67068,285.31167 C304.365443,288.215423 303.594969,293.03868 304.699464,295.541608 C306.048907,298.601237 307.625485,297.282969 309.571711,299.380619 C317.125031,307.490639 310.057155,313.173443 308.850227,322.347876 C318.550186,319.729155 315.548454,323.603794 314.916041,332.586722 C314.488495,338.683711 314.19901,340.478515 309.366845,343.95233 C305.282887,346.887258 301.319175,345.435381 302.049567,352.20932 C311.522392,348.250062 316.265485,368.010722 304.641567,367.770227 C304.873155,369.173113 306.636784,370.344412 306.106804,371.880907 C305.714887,373.029938 303.839918,375.078598 303.706309,376.160825 C315.548454,367.667794 316.051711,382.413691 319.846186,388.181113 C317.463505,384.56033 327.239175,392.501113 323.894515,391.178392 C326.802722,392.331876 330.891134,390.688495 333.104577,393.984165 C336.05732,398.38433 332.093608,398.005773 331.692784,401.693361 C332.904165,402.214433 333.981938,402.780041 335.358103,402.860206 C332.583505,404.726268 331.964454,407.83934 329.670845,409.714309 C326.940784,411.950021 325.787299,412.359753 322.469361,412.577979 C315.984907,412.996619 315.005113,408.850309 310.636124,406.066804 C307.429526,409.40701 301.742268,412.163794 299.141361,415.192247 C297.426722,417.18301 296.478103,421.07101 295.591835,423.774351 C293.707959,429.528412 294.69666,429.924784 297.23967,435.171134 C301.822433,444.630598 287.530804,443.325691 293.467464,448.768" id="Chhattisgarh"></path>
        </g>
    </g>
</svg>