<svg xmlns="http://www.w3.org/2000/svg" width="16.667" height="16.667" viewBox="0 0 16.667 16.667"><defs><style>.a{fill:#024f9d;fill-rule:evenodd;}</style></defs><path class="a" d="M-1.043.519a.488.488,0,0,1-.488.488A.488.488,0,0,1-2.02.519V-1.532a.488.488,0,0,1,.488-.488H.519a.488.488,0,0,1,.488.488.488.488,0,0,1-.488.488H-1.043ZM5.7,11a.488.488,0,1,1,0-.977h.423a.488.488,0,1,1,0,.977Zm.358-6.51a.488.488,0,0,1-.977,0V4.067a.488.488,0,1,1,.977,0ZM9.048,9.959a.488.488,0,1,1,0-.977h.423a.488.488,0,1,1,0,.977ZM-1.027,6.8H1.245a.483.483,0,0,0-.01.1V8.364a.488.488,0,0,0,.977,0V6.9a.483.483,0,0,0-.01-.1H6.509v.553H3.937a.488.488,0,0,0,0,.977H7a.488.488,0,0,0,.488-.488V6.8H9.308V8.234a.488.488,0,0,0,.977,0V6.8h3.369a.488.488,0,0,0,0-.977h-2.23V4.881h.488a.488.488,0,0,0,0-.977H9.471a.488.488,0,0,0,0,.977h.977v.944H7.486V4.556a.488.488,0,1,0-.977,0v1.27H-1.027a.488.488,0,0,0-.488.488.488.488,0,0,0,.488.488ZM7.42.812a.488.488,0,1,1,.977,0V3.384a.488.488,0,1,1-.977,0Zm-2.9.2H5.63v-.2a.488.488,0,1,1,.977,0V2.44a.488.488,0,1,1-.977,0V1.984H4.523v.228a.488.488,0,1,1-.977,0V.812a.488.488,0,1,1,.977,0ZM.617,4.849a.488.488,0,0,1,0-.977H4.23a.488.488,0,0,1,0,.977Zm10.645,6.478v.488a.488.488,0,0,0,.977,0V8.885a.488.488,0,0,0-.977,0V10.35H9.634a.488.488,0,0,0,0,.977Zm-4.98.977H7.746a.488.488,0,0,0,.488-.488V9.308a.488.488,0,0,0-.977,0v2.018H6.281a.488.488,0,1,0,0,.977Zm-2.7-2.962a.488.488,0,0,1,.977,0v1.432a.488.488,0,1,1-.977,0ZM.617,9.276H2.668a.488.488,0,0,1,.488.488v2.051a.488.488,0,0,1-.488.488H.617a.488.488,0,0,1-.488-.488V9.764A.488.488,0,0,1,.617,9.276Zm1.562.977H1.105v1.074H2.18ZM9.96.324H12.01A.488.488,0,0,1,12.5.812V2.863a.488.488,0,0,1-.488.488H9.96a.488.488,0,0,1-.488-.488V.812A.488.488,0,0,1,9.96.324Zm1.562.977H10.448V2.375h1.074ZM.617.324A.488.488,0,0,0,.129.812V2.863a.488.488,0,0,0,.488.488H2.668a.488.488,0,0,0,.488-.488V.812A.488.488,0,0,0,2.668.324ZM2.18,1.3V2.375H1.105V1.3ZM13.67,12.108a.488.488,0,1,1,.977,0v2.051a.488.488,0,0,1-.488.488H12.108a.488.488,0,0,1,0-.977H13.67Zm-15.69,0v2.051a.488.488,0,0,0,.488.488H.519a.488.488,0,1,0,0-.977H-1.043V12.108a.488.488,0,0,0-.488-.488.488.488,0,0,0-.488.488ZM14.647.519V-1.532a.488.488,0,0,0-.488-.488H12.108a.488.488,0,0,0-.488.488.488.488,0,0,0,.488.488H13.67V.519a.488.488,0,0,0,.977,0Zm0,0" transform="translate(2.02 2.02)"/></svg>