<?xml version="1.0" encoding="UTF-8"?>
<svg width="12px" height="14px" viewBox="0 0 12 14" version="1.1" xmlns="http://www.w3.org/2000/svg" xmlns:xlink="http://www.w3.org/1999/xlink">
    <!-- Generator: sketchtool 58 (101010) - https://sketch.com -->
    <title>F050DF7E-807A-419F-99A1-ECAB61466D7C</title>
    <desc>Created with sketchtool.</desc>
    <g id="Library-FLow" stroke="none" stroke-width="1" fill="none" fill-rule="evenodd">
        <g id="Content-detail" transform="translate(-1095.000000, -213.000000)" fill="#024F9D">
            <g id="Group-5" transform="translate(950.000000, 204.000000)">
                <g id="Group-13" transform="translate(137.000000, 0.000000)">
                    <path d="M15.5,9 L9.5,9 C8.675,9 8.0075,9.63 8.0075,10.4 L8,21.6 C8,22.37 8.6675,23 9.4925,23 L18.5,23 C19.325,23 20,22.37 20,21.6 L20,13.2 L15.5,9 L15.5,9 Z M17,20.2 L11,20.2 L11,18.8 L17,18.8 L17,20.2 L17,20.2 Z M17,17.4 L11,17.4 L11,16 L17,16 L17,17.4 L17,17.4 Z M14.75,13.9 L14.75,10.05 L18.875,13.9 L14.75,13.9 L14.75,13.9 Z" id="Doc"></path>
                </g>
            </g>
        </g>
    </g>
</svg>