<?xml version="1.0" encoding="UTF-8"?>
<svg width="23px" height="22px" viewBox="0 0 23 22" version="1.1" xmlns="http://www.w3.org/2000/svg" xmlns:xlink="http://www.w3.org/1999/xlink">
    <!-- Generator: sketchtool 58 (101010) - https://sketch.com -->
    <title>AB1BF139-158C-41B7-AE12-B2DB23B36ECC@1.5x</title>
    <desc>Created with sketchtool.</desc>
    <g id="Library-FLow" stroke="none" stroke-width="1" fill="none" fill-rule="evenodd">
        <g id="Content-detail" transform="translate(-769.000000, -659.000000)">
            <g id="Group-27" transform="translate(112.000000, 650.000000)">
                <g id="Group-2" transform="translate(640.000000, 8.000000)">
                    <g id="Rating-star" transform="translate(16.000000, 0.000000)">
                        <g id="outline-star_border-24px">
                            <polygon id="Path" points="0 0 24 0 24 24 0 24"></polygon>
                            <path d="M23.1,9.08441263 L15.15505,8.39210105 L12.05,1 L8.94495,8.40326737 L1,9.08441263 L7.0333,14.36608 L5.2211,22.216 L12.05,18.0509642 L18.8789,22.216 L17.07775,14.36608 L23.1,9.08441263 Z M12.0445522,16.0692228 L7.94778965,18.6685492 L9.03735415,13.7676166 L5.42,10.4697927 L10.1922925,10.0346632 L12.0445522,5.42 L13.9077075,10.046114 L18.68,10.4812435 L15.0626459,13.7790674 L16.1522104,18.68 L12.0445522,16.0692228 Z" id="Shape" fill="#024F9D" fill-rule="nonzero"></path>
                        </g>
                    </g>
                </g>
            </g>
        </g>
    </g>
</svg>