<?xml version="1.0" encoding="UTF-8"?>
<svg width="10px" height="14px" viewBox="0 0 10 14" version="1.1" xmlns="http://www.w3.org/2000/svg" xmlns:xlink="http://www.w3.org/1999/xlink">
    <!-- Generator: sketchtool 58 (101010) - https://sketch.com -->
    <title>34700C9D-23DA-4890-A809-0F4D027E8157</title>
    <desc>Created with sketchtool.</desc>
    <g id="Library-FLow" stroke="none" stroke-width="1" fill="none" fill-rule="evenodd">
        <g id="Content-detail" transform="translate(-1200.000000, -213.000000)" fill="#024F9D">
            <g id="Group-5" transform="translate(950.000000, 204.000000)">
                <g id="Group-20" transform="translate(242.000000, 0.000000)">
                    <path d="M10.8333333,14.4933333 L10.8333333,12 C10.8333333,11.08 11.58,10.3333333 12.5,10.3333333 C13.42,10.3333333 14.1666667,11.08 14.1666667,12 L14.1666667,14.4933333 C14.9733333,13.9533333 15.5,13.04 15.5,12 C15.5,10.34 14.16,9 12.5,9 C10.84,9 9.5,10.34 9.5,12 C9.5,13.04 10.0266667,13.9533333 10.8333333,14.4933333 L10.8333333,14.4933333 Z M17.3933333,17.58 L14.3666667,16.0733333 C14.2533333,16.0266667 14.1333333,16 14.0066667,16 L13.5,16 L13.5,12 C13.5,11.4466667 13.0533333,11 12.5,11 C11.9466667,11 11.5,11.4466667 11.5,12 L11.5,19.16 L9.21333333,18.68 C9.16,18.6733333 9.11333333,18.66 9.05333333,18.66 C8.84666667,18.66 8.66,18.7466667 8.52666667,18.88 L8,19.4133333 L11.2933333,22.7066667 C11.4733333,22.8866667 11.7266667,23 12,23 L16.5266667,23 C17.0266667,23 17.4133333,22.6333333 17.4866667,22.1466667 L17.9866667,18.6333333 C17.9933333,18.5866667 18,18.54 18,18.5 C18,18.0866667 17.7466667,17.7266667 17.3933333,17.58 L17.3933333,17.58 Z" id="Touch"></path>
                </g>
            </g>
        </g>
    </g>
</svg>